<?xml version="1.0" encoding="UTF-8"?>
<!DOCTYPE svg PUBLIC "-//W3C//DTD SVG 1.1//EN" "http://www.w3.org/Graphics/SVG/1.1/DTD/svg11.dtd">
<!-- Creator: CorelDRAW -->
<svg xmlns="http://www.w3.org/2000/svg" xml:space="preserve" width="45.9811mm" height="53.094mm" version="1.1" style="shape-rendering:geometricPrecision; text-rendering:geometricPrecision; image-rendering:optimizeQuality; fill-rule:evenodd; clip-rule:evenodd"
viewBox="0 0 993.94 1147.69"
 xmlns:xlink="http://www.w3.org/1999/xlink"
 xmlns:xodm="http://www.corel.com/coreldraw/odm/2003">
 <defs>
  <style type="text/css">
   <![CDATA[
    .fil5 {fill:#2B5CA2}
    .fil2 {fill:#3467B3}
    .fil25 {fill:#35793B}
    .fil4 {fill:#3C75BF}
    .fil24 {fill:#408743}
    .fil1 {fill:#468BD2}
    .fil21 {fill:#4C9C50}
    .fil31 {fill:#4F9ADB}
    .fil3 {fill:#529BDE}
    .fil6 {fill:#541A41}
    .fil9 {fill:#751F57}
    .fil7 {fill:#8A2462}
    .fil13 {fill:#93241F}
    .fil27 {fill:#A52B21}
    .fil15 {fill:#A52B22}
    .fil10 {fill:#A82C78}
    .fil23 {fill:#B0CB29}
    .fil30 {fill:#B0CB31}
    .fil12 {fill:#B43024}
    .fil8 {fill:#C13082}
    .fil0 {fill:#D13590}
    .fil22 {fill:#D4DA17}
    .fil28 {fill:#D64E2A}
    .fil14 {fill:#D64E2A}
    .fil26 {fill:#D8399B}
    .fil11 {fill:#DA4F29}
    .fil18 {fill:#DC7024}
    .fil20 {fill:#E39322}
    .fil17 {fill:#E8A71B}
    .fil19 {fill:#EFC20D}
    .fil29 {fill:#F0CD06}
    .fil16 {fill:#F1D323}
   ]]>
  </style>
 </defs>
 <g id="Layer_x0020_1">
  <metadata id="CorelCorpID_0Corel-Layer"/>
  <polygon class="fil0" points="0,286.92 82.83,334.74 165.66,382.56 82.83,430.38 0,478.2 0,382.56 "/>
  <polygon class="fil1" points="0,478.2 82.83,526.02 165.66,573.84 82.83,621.67 0,669.49 0,573.84 "/>
  <polygon class="fil2" points="0,669.49 82.83,717.31 165.66,765.13 82.83,812.95 0,860.77 0,765.13 "/>
  <polygon class="fil3" points="165.66,382.56 82.83,430.38 -0,478.2 82.83,526.02 165.66,573.84 165.66,478.2 "/>
  <polygon class="fil4" points="165.66,573.84 82.83,621.67 -0,669.49 82.83,717.31 165.66,765.13 165.66,669.49 "/>
  <polygon class="fil5" points="165.66,765.13 82.83,812.95 -0,860.77 82.83,908.59 165.66,956.41 165.66,860.77 "/>
  <polygon class="fil6" points="496.97,0 496.97,95.64 496.97,191.28 414.14,143.46 331.31,95.64 414.14,47.82 "/>
  <polygon class="fil7" points="331.31,95.64 331.31,191.28 331.31,286.92 248.48,239.1 165.66,191.28 248.48,143.46 "/>
  <polygon class="fil8" points="165.66,191.28 165.66,286.92 165.66,382.57 82.83,334.75 0,286.92 82.83,239.1 "/>
  <polygon class="fil9" points="496.97,191.28 414.14,143.46 331.31,95.64 331.31,191.28 331.31,286.92 414.14,239.1 "/>
  <polygon class="fil10" points="331.31,286.92 248.48,239.1 165.65,191.28 165.65,286.92 165.65,382.56 248.48,334.74 "/>
  <polygon class="fil11" points="993.93,286.93 911.1,334.75 828.28,382.57 828.28,286.93 828.28,191.29 911.1,239.11 "/>
  <polygon class="fil12" points="828.28,191.29 745.45,239.11 662.62,286.92 662.62,191.29 662.62,95.65 745.45,143.46 "/>
  <polygon class="fil13" points="662.62,95.64 579.79,143.46 496.96,191.28 496.96,95.64 496.96,0 579.79,47.82 "/>
  <polygon class="fil14" points="828.28,382.57 828.28,286.92 828.28,191.28 745.45,239.1 662.62,286.92 745.45,334.74 "/>
  <polygon class="fil15" points="662.62,286.92 662.62,191.28 662.62,95.64 579.79,143.46 496.97,191.28 579.79,239.1 "/>
  <polygon class="fil16" points="993.93,860.77 911.1,812.95 828.28,765.13 911.1,717.31 993.93,669.49 993.93,765.13 "/>
  <polygon class="fil17" points="993.93,669.49 911.1,621.67 828.28,573.85 911.1,526.03 993.93,478.21 993.93,573.85 "/>
  <polygon class="fil18" points="993.93,478.21 911.1,430.38 828.28,382.56 911.1,334.74 993.93,286.92 993.93,382.57 "/>
  <polygon class="fil19" points="828.28,765.13 911.11,717.31 993.94,669.49 911.11,621.67 828.28,573.85 828.28,669.49 "/>
  <polygon class="fil20" points="828.28,573.85 911.11,526.03 993.94,478.21 911.11,430.38 828.28,382.57 828.28,478.21 "/>
  <polygon class="fil21" points="496.97,1147.69 496.97,1052.05 496.97,956.41 579.79,1004.23 662.62,1052.05 579.79,1099.87 "/>
  <polygon class="fil22" points="828.28,956.41 828.28,860.76 828.28,765.12 911.1,812.94 993.93,860.76 911.1,908.59 "/>
  <polygon class="fil23" points="662.62,860.77 745.45,908.59 828.28,956.41 828.28,860.77 828.28,765.13 745.45,812.95 "/>
  <polygon class="fil24" points="496.96,1147.69 496.96,1052.05 496.96,956.41 414.14,1004.23 331.31,1052.05 414.14,1099.87 "/>
  <polygon class="fil25" points="331.31,1052.05 331.31,956.41 331.31,860.76 414.14,908.58 496.96,956.4 414.14,1004.22 "/>
  <polygon class="fil26" points="331.31,478.2 414.14,526.02 496.96,573.84 414.14,621.67 331.31,669.49 331.31,573.84 "/>
  <polygon class="fil27" points="496.96,382.56 496.96,478.2 496.96,573.84 414.14,526.03 331.31,478.21 414.14,430.38 "/>
  <polygon class="fil28" points="662.62,478.2 579.79,526.03 496.96,573.84 496.96,478.2 496.96,382.56 579.79,430.38 "/>
  <polygon class="fil29" points="662.62,478.2 579.79,526.02 496.96,573.84 579.79,621.67 662.62,669.49 662.62,573.84 "/>
  <polygon class="fil30" points="662.62,669.49 579.79,621.66 496.96,573.84 496.96,669.49 496.96,765.13 579.79,717.3 "/>
  <polygon class="fil31" points="496.96,765.13 496.96,669.49 496.96,573.84 414.14,621.66 331.31,669.48 414.14,717.3 "/>
 </g>
</svg>
