<?xml version="1.0" encoding="UTF-8" standalone="no"?>
<!-- Creator: CorelDRAW -->

<svg
   xml:space="preserve"
   width="212.624mm"
   height="53.094mm"
   version="1.1"
   style="shape-rendering:geometricPrecision; text-rendering:geometricPrecision; image-rendering:optimizeQuality; fill-rule:evenodd; clip-rule:evenodd"
   viewBox="0 0 36000.0 6000.0"
   id="svg33"
   sodipodi:docname="rudji_games_logo_header_black.svg"
   inkscape:version="1.3.2 (091e20e, 2023-11-25, custom)"
   xmlns:inkscape="http://www.inkscape.org/namespaces/inkscape"
   xmlns:sodipodi="http://sodipodi.sourceforge.net/DTD/sodipodi-0.dtd"
   xmlns="http://www.w3.org/2000/svg"
   xmlns:svg="http://www.w3.org/2000/svg"><sodipodi:namedview
   id="namedview33"
   pagecolor="#ffffff"
   bordercolor="#000000"
   borderopacity="0.25"
   inkscape:showpageshadow="2"
   inkscape:pageopacity="0.0"
   inkscape:pagecheckerboard="0"
   inkscape:deskcolor="#d1d1d1"
   inkscape:document-units="mm"
   showgrid="false"
   inkscape:zoom="3.1905697"
   inkscape:cx="247.60468"
   inkscape:cy="100.45228"
   inkscape:window-width="3840"
   inkscape:window-height="2054"
   inkscape:window-x="2549"
   inkscape:window-y="722"
   inkscape:window-maximized="1"
   inkscape:current-layer="svg33" />
 <defs
   id="defs1">
  <style
   type="text/css"
   id="style1">
   <![CDATA[
    .fil32 {fill:#FEFEFE}
    .fil5 {fill:#2B5CA2}
    .fil2 {fill:#3467B3}
    .fil25 {fill:#35793B}
    .fil4 {fill:#3C75BF}
    .fil24 {fill:#408743}
    .fil1 {fill:#468BD2}
    .fil21 {fill:#4C9C50}
    .fil31 {fill:#4F9ADB}
    .fil3 {fill:#529BDE}
    .fil6 {fill:#541A41}
    .fil9 {fill:#751F57}
    .fil7 {fill:#8A2462}
    .fil13 {fill:#93241F}
    .fil27 {fill:#A52B21}
    .fil15 {fill:#A52B22}
    .fil10 {fill:#A82C78}
    .fil23 {fill:#B0CB29}
    .fil30 {fill:#B0CB31}
    .fil12 {fill:#B43024}
    .fil8 {fill:#C13082}
    .fil0 {fill:#D13590}
    .fil22 {fill:#D4DA17}
    .fil28 {fill:#D64E2A}
    .fil14 {fill:#D64E2A}
    .fil26 {fill:#D8399B}
    .fil11 {fill:#DA4F29}
    .fil18 {fill:#DC7024}
    .fil20 {fill:#E39322}
    .fil17 {fill:#E8A71B}
    .fil19 {fill:#EFC20D}
    .fil29 {fill:#F0CD06}
    .fil16 {fill:#F1D323}
   ]]>
  </style>
 </defs>
 <g
   id="Layer_x0020_1"
   inkscape:label="Layer 1">
  <metadata
   id="CorelCorpID_0Corel-Layer" />
  <polygon
   class="fil0"
   points="0.02,1326.77 383.02,1547.9 766.03,1769.04 383.02,1990.16 0.02,2211.3 0.02,1769.03 "
   id="polygon1" />
  <polygon
   class="fil1"
   points="0.02,2211.3 383.02,2432.42 766.03,2653.55 383.02,2874.69 0.02,3095.81 0.02,2653.55 "
   id="polygon2" />
  <polygon
   class="fil2"
   points="0.02,3095.81 383.02,3316.95 766.03,3538.08 383.02,3759.21 0.02,3980.34 0.02,3538.07 "
   id="polygon3" />
  <polygon
   class="fil3"
   points="766.02,1769.03 383.01,1990.16 -0,2211.3 383,2432.42 766.02,2653.55 766.02,2211.3 "
   id="polygon4" />
  <polygon
   class="fil4"
   points="766.02,2653.55 383.01,2874.69 -0,3095.81 383,3316.95 766.02,3538.07 766.02,3095.81 "
   id="polygon5" />
  <polygon
   class="fil5"
   points="766.02,3538.07 383.01,3759.21 -0,3980.34 383,4201.47 766.02,4422.6 766.02,3980.34 "
   id="polygon6" />
  <polygon
   class="fil6"
   points="2298.06,0 2298.06,442.26 2298.06,884.53 1915.05,663.39 1532.05,442.27 1915.05,221.13 "
   id="polygon7" />
  <polygon
   class="fil7"
   points="1532.04,442.26 1532.04,884.53 1532.04,1326.79 1149.03,1105.65 766.03,884.53 1149.03,663.39 "
   id="polygon8" />
  <polygon
   class="fil8"
   points="766.02,884.53 766.02,1326.79 766.02,1769.05 383.01,1547.92 0.01,1326.79 383.01,1105.65 "
   id="polygon9" />
  <polygon
   class="fil9"
   points="2298.06,884.51 1915.04,663.38 1532.03,442.25 1532.03,884.51 1532.03,1326.77 1915.04,1105.64 "
   id="polygon10" />
  <polygon
   class="fil10"
   points="1532.04,1326.77 1149.02,1105.64 766.01,884.52 766.01,1326.77 766.01,1769.03 1149.02,1547.9 "
   id="polygon11" />
  <polygon
   class="fil11"
   points="4596.11,1326.8 4213.09,1547.92 3830.09,1769.06 3830.09,1326.8 3830.09,884.54 4213.09,1105.66 "
   id="polygon12" />
  <polygon
   class="fil12"
   points="3830.09,884.54 3447.07,1105.66 3064.07,1326.79 3064.07,884.54 3064.07,442.28 3447.07,663.4 "
   id="polygon13" />
  <polygon
   class="fil13"
   points="3064.07,442.27 2681.05,663.4 2298.04,884.53 2298.04,442.27 2298.04,0.01 2681.05,221.14 "
   id="polygon14" />
  <polygon
   class="fil14"
   points="3830.1,1769.05 3830.09,1326.78 3830.09,884.52 3447.08,1105.65 3064.08,1326.78 3447.08,1547.91 "
   id="polygon15" />
  <polygon
   class="fil15"
   points="3064.07,1326.78 3064.07,884.52 3064.07,442.26 2681.06,663.38 2298.06,884.52 2681.06,1105.65 "
   id="polygon16" />
  <polygon
   class="fil16"
   points="4596.11,3980.35 4213.1,3759.22 3830.1,3538.08 4213.1,3316.96 4596.11,3095.82 4596.11,3538.09 "
   id="polygon17" />
  <polygon
   class="fil17"
   points="4596.11,3095.82 4213.1,2874.7 3830.1,2653.56 4213.1,2432.43 4596.11,2211.31 4596.11,2653.56 "
   id="polygon18" />
  <polygon
   class="fil18"
   points="4596.11,2211.31 4213.1,1990.17 3830.1,1769.04 4213.1,1547.91 4596.11,1326.78 4596.11,1769.05 "
   id="polygon19" />
  <polygon
   class="fil19"
   points="3830.11,3538.09 4213.11,3316.96 4596.13,3095.82 4213.12,2874.7 3830.11,2653.56 3830.11,3095.82 "
   id="polygon20" />
  <polygon
   class="fil20"
   points="3830.11,2653.56 4213.11,2432.43 4596.13,2211.31 4213.12,1990.17 3830.11,1769.05 3830.11,2211.31 "
   id="polygon21" />
  <polygon
   class="fil21"
   points="2298.06,5307.11 2298.06,4864.85 2298.06,4422.58 2681.06,4643.72 3064.07,4864.84 2681.06,5085.97 "
   id="polygon22" />
  <polygon
   class="fil22"
   points="3830.1,4422.58 3830.1,3980.32 3830.1,3538.06 4213.1,3759.19 4596.11,3980.32 4213.1,4201.46 "
   id="polygon23" />
  <polygon
   class="fil23"
   points="3064.08,3980.34 3447.09,4201.47 3830.11,4422.59 3830.11,3980.34 3830.11,3538.08 3447.09,3759.21 "
   id="polygon24" />
  <polygon
   class="fil24"
   points="2298.04,5307.11 2298.04,4864.85 2298.04,4422.58 1915.03,4643.72 1532.03,4864.84 1915.03,5085.97 "
   id="polygon25" />
  <polygon
   class="fil25"
   points="1532.04,4864.84 1532.04,4422.58 1532.04,3980.31 1915.04,4201.45 2298.05,4422.57 1915.04,4643.71 "
   id="polygon26" />
  <polygon
   class="fil26"
   points="1532.04,2211.3 1915.04,2432.42 2298.05,2653.55 1915.04,2874.69 1532.04,3095.81 1532.04,2653.55 "
   id="polygon27" />
  <polygon
   class="fil27"
   points="2298.05,1769.04 2298.05,2211.3 2298.05,2653.55 1915.04,2432.43 1532.04,2211.31 1915.04,1990.17 "
   id="polygon28" />
  <polygon
   class="fil28"
   points="3064.07,2211.3 2681.05,2432.43 2298.05,2653.55 2298.05,2211.3 2298.05,1769.04 2681.05,1990.17 "
   id="polygon29" />
  <polygon
   class="fil29"
   points="3064.06,2211.3 2681.05,2432.42 2298.05,2653.55 2681.05,2874.69 3064.06,3095.81 3064.06,2653.55 "
   id="polygon30" />
  <polygon
   class="fil30"
   points="3064.07,3095.81 2681.05,2874.68 2298.05,2653.55 2298.05,3095.81 2298.05,3538.07 2681.05,3316.94 "
   id="polygon31" />
  <polygon
   class="fil31"
   points="2298.05,3538.07 2298.05,3095.81 2298.05,2653.55 1915.04,2874.68 1532.04,3095.8 1915.04,3316.94 "
   id="polygon32" />
  <path
   class="fil32"
   d="M11411.97 1409.59l338.62 0 0 2370.4 -194.5 0 -144.13 0 -677.26 0c0,-225.75 0,-451.51 0,-677.26l338.62 0 0 338.62 338.63 0 0 -2031.76zm677.25 0l338.63 0 0 2370.4 -338.63 0 0 -2370.4zm-2709.01 2031.76l677.25 0 0 -1693.13 -677.25 0 0 1693.13zm677.25 0l0 338.63 -677.25 0 -71.29 0 -267.34 0 0 -2370.4c338.62,0 677.26,0 1015.88,0l0 338.63 338.63 0 0 1693.13 -338.63 0zm-1693.13 -2031.76l338.62 0 0 2031.76 -338.62 0 0 338.63 -677.26 0 0 -338.63 -338.62 0 0 -2031.76 338.62 0 0 2031.76 677.26 0 0 -2031.76zm-2709.02 0c338.62,0 677.26,0 1015.88,0l0 338.63 338.62 0 0 677.25 -338.62 0 0 338.63 338.62 0 0 1015.88 -338.62 0 0 -1015.88 -677.26 0 0 1015.88 -338.62 0 0 -2370.4zm338.62 338.63l0 677.25 677.26 0 0 -677.25 -677.26 0z"
   id="path32"
   style="fill:#000000" />
  <path
   class="fil32"
   d="M17528.36 1409.59l0 338.63 338.63 0 338.62 0 0 2031.76 338.62 0 0 -2370.4c-225.75,0 -451.5,0 -677.25,0l0 1354.52 -338.63 0 0 -1015.88 -338.62 0 0 2031.76 -338.62 0 0 -2370.4c225.75,0 451.5,0 677.25,0zm3047.64 1015.88l677.26 0 0 1354.52c-338.62,0 -677.26,0 -1015.88,0l0 -338.63 677.26 0 0 -677.25c-225.75,0 -451.51,0 -677.26,0l0 -1354.52c338.62,0 677.26,0 1015.88,0l0 338.63 -677.26 0 0 677.25zm-1354.51 1015.88l677.26 0 0 338.63c-338.62,0 -677.26,0 -1015.88,0l0 -2370.4c338.62,0 677.26,0 1015.88,0l0 338.63 -677.26 0 0 677.25 338.63 0 0 338.63 -338.63 0 0 677.25zm-3724.9 -1015.88l677.26 0 0 -677.25 -677.26 0 0 677.25zm677.26 338.63l-677.26 0 0 1015.88 -338.62 0 0 -2031.76 338.62 0 0 -338.63 677.26 0 0 338.63 338.62 0 0 2031.76 -338.62 0 0 -1015.88zm-1354.52 677.25l-338.63 0 0 338.63 -677.25 0 0 -338.63 -338.63 0 0 -1693.13 338.63 0 0 -338.63 677.25 0 0 338.63 338.64 0 0 338.62 -338.64 0 0 -338.62 -677.25 0 0 1693.13 677.25 0 0 -677.25 -338.61 0 0 -338.63 677.25 0 0.01 0c0,338.63 -0.01,677.25 -0.01,1015.88z"
   id="path33"
   style="fill:#000000" />
 </g>
</svg>
